<?xml version="1.0"?>
<svg xmlns="http://www.w3.org/2000/svg" xmlns:xlink="http://www.w3.org/1999/xlink" version="1.1" id="Capa_1" x="0px" y="0px" viewBox="0 0 529.47 529.47" style="enable-background:new 0 0 529.47 529.47;" xml:space="preserve" width="512px" height="512px" class=""><g transform="matrix(6.12323e-17 -1 1 6.12323e-17 0 529.47)"><g>
	<g>
		<path d="M264.25,466.941c-52.414,0-103.128-20.444-141.635-58.391c-4.42-4.365-4.464-11.472-0.11-15.881    c4.354-4.431,11.472-4.475,15.881-0.132c44.43,43.804,107.098,61.418,167.65,47.051c82.98-19.588,142.556-98.576,140.494-179.966    l-54.267,64.895c-3.97,4.804-11.099,5.396-15.815,1.426c-4.76-3.992-5.396-11.055-1.426-15.815l70.302-84.099    c0.548-0.877,1.228-1.689,2.018-2.391c2.259-2.501,5.637-3.751,8.928-3.696c3.532,0.186,6.756,2.029,8.73,4.957l62.559,93.235    c3.466,5.155,2.084,12.13-3.071,15.574c-5.089,3.444-12.086,2.15-15.574-3.071l-39.878-59.4    c-2.961,88.091-67.143,168.791-157.823,190.199C295.595,465.142,279.846,466.941,264.25,466.941z M73.832,332.237    c-0.197,0-0.395,0-0.581-0.022c-3.532-0.176-6.767-2.018-8.741-4.957L1.906,234.034c-3.455-5.155-2.084-12.13,3.06-15.585    c5.133-3.488,12.141-2.073,15.585,3.06l35.623,53.061c-0.647-37.487,9.279-74.722,29.294-108.272    c29.569-49.529,77.946-85.371,132.74-98.335c72.649-17.131,148.479,6.899,197.964,62.811c4.124,4.65,3.685,11.746-0.965,15.859    c-4.628,4.069-11.735,3.674-15.837-0.965c-44.002-49.716-111.496-71.114-175.985-55.836    c-48.926,11.56-92.16,43.629-118.625,87.982c-21.672,36.314-30.084,77.464-24.436,117.901l56.878-68.108    c3.981-4.771,11.077-5.396,15.815-1.426c4.76,3.981,5.396,11.055,1.426,15.815l-71.991,86.205    C80.313,330.768,77.155,332.237,73.832,332.237z" data-original="#000000" class="active-path" data-old_color="#ffffff" fill="#ffffff"/>
	</g>
</g><script xmlns="" class="active-path" style="fill:#FFFFFF" data-old_color="#ffffff"/></g> </svg>
