<?xml version="1.0"?>
<svg xmlns="http://www.w3.org/2000/svg" xmlns:xlink="http://www.w3.org/1999/xlink" version="1.1" id="Capa_1" x="0px" y="0px" viewBox="0 0 539.077 539.077" style="enable-background:new 0 0 539.077 539.077;" xml:space="preserve" width="512px" height="512px" class=""><g><g>
	<g>
		<path d="M303.231,539.077h-67.385c-6.208,0-11.231-5.023-11.231-11.231V463.73c-17.767-4.519-37.487-10.244-52.381-17.526    l-45.647,45.691c-4.212,4.19-11.669,4.212-15.881,0L47.16,428.37c-2.106-2.106-3.29-4.957-3.29-7.94    c0-2.983,1.184-5.835,3.29-7.941l45.669-45.669c-7.239-14.872-12.975-34.592-17.482-52.359H11.231    C5.023,314.462,0,309.438,0,303.231v-67.385c0-6.208,5.023-11.231,11.231-11.231h64.116c4.508-17.767,10.244-37.476,17.482-52.348    L47.16,126.609c-2.106-2.106-3.29-4.957-3.29-7.941c0-2.983,1.184-5.835,3.29-7.941l63.546-63.546    c4.387-4.387,11.494-4.387,15.881,0l45.68,45.658c14.905-7.261,34.603-12.975,52.348-17.449v-64.16    C224.615,5.023,229.639,0,235.846,0h67.385c6.208,0,11.231,5.023,11.231,11.231v64.16c17.724,4.475,37.399,10.178,52.337,17.449    l45.669-45.658c4.387-4.387,11.494-4.387,15.881,0l63.546,63.546c2.106,2.106,3.29,4.957,3.29,7.941    c0,2.983-1.184,5.835-3.29,7.941l-45.647,45.636c7.261,14.916,12.986,34.625,17.46,52.37h64.138    c6.208,0,11.231,5.023,11.231,11.231v67.385c0,6.208-5.023,11.231-11.231,11.231H463.73    c-4.497,17.767-10.244,37.487-17.482,52.359l45.647,45.669c4.387,4.387,4.387,11.494,0,15.881l-63.524,63.524    c-4.387,4.387-11.494,4.387-15.881,0l-45.691-45.647c-14.872,7.239-34.57,12.986-52.337,17.482v64.116    C314.462,534.054,309.438,539.077,303.231,539.077z M247.077,516.615H292v-61.681c0-5.177,3.553-9.695,8.599-10.924    c12.525-3.027,45.822-11.077,62.361-21.211c4.409-2.698,10.112-2.04,13.797,1.645l43.673,43.629l47.643-47.643l-43.629-43.651    c-3.663-3.663-4.343-9.366-1.645-13.797c10.112-16.539,18.184-49.858,21.211-62.383c1.228-5.045,5.747-8.599,10.924-8.599h61.681    v-44.923h-61.703c-5.199,0-9.695-3.553-10.924-8.599c-3.005-12.514-11.011-45.746-21.189-62.405    c-2.698-4.431-2.018-10.134,1.645-13.797l43.629-43.607l-47.665-47.665l-43.651,43.629c-3.685,3.685-9.41,4.332-13.775,1.645    c-14.96-9.103-42.773-16.44-62.383-21.178C295.553,93.893,292,89.375,292,84.187V22.462h-44.923v61.725    c0,5.188-3.553,9.706-8.599,10.913c-12.514,3.016-45.746,11.033-62.394,21.178c-4.42,2.687-10.123,2.04-13.786-1.645    l-43.651-43.629l-47.665,47.665l43.651,43.629c3.674,3.663,4.343,9.366,1.645,13.797c-10.123,16.55-18.184,49.858-21.222,62.394    c-1.217,5.034-5.725,8.588-10.913,8.588H22.462V292h61.681c5.188,0,9.695,3.553,10.913,8.599    c3.038,12.525,11.11,45.844,21.222,62.383c2.698,4.431,2.029,10.134-1.645,13.797L70.982,420.43l47.665,47.643l43.629-43.673    c3.652-3.685,9.388-4.321,13.808-1.645c16.561,10.156,49.869,18.228,62.405,21.255c5.034,1.228,8.588,5.747,8.588,10.924V516.615z    " data-original="#000000" class="active-path" data-old_color="#000000" fill="#F9F9F9"/>
		<path d="M269.538,381.846c-61.923,0-112.308-50.385-112.308-112.308s50.385-112.308,112.308-112.308    s112.308,50.385,112.308,112.308S331.461,381.846,269.538,381.846z M269.538,179.692c-49.54,0-89.846,40.306-89.846,89.846    c0,49.551,40.306,89.846,89.846,89.846c49.551,0,89.846-40.295,89.846-89.846C359.385,219.998,319.09,179.692,269.538,179.692z" data-original="#000000" class="active-path" data-old_color="#000000" fill="#F9F9F9"/>
	</g>
</g><script xmlns="" class="active-path" style="fill:#F9F9F9" data-old_color="#000000"/></g> </svg>
